<svg xmlns="http://www.w3.org/2000/svg" viewBox="0 0 480 480" role="img" aria-label="Estante de livros">
  <rect width="480" height="480" fill="none"/>
  <!-- moldura da estante -->
  <rect x="40" y="40" width="400" height="400" rx="14" fill="#5b4632"/>
  <rect x="54" y="54" width="372" height="372" rx="8" fill="#6d5540"/>

  <!-- prateleiras -->
  <g fill="#4a3826">
    <rect x="54" y="170" width="372" height="12"/>
    <rect x="54" y="298" width="372" height="12"/>
    <rect x="54" y="414" width="372" height="12"/>
  </g>

  <!-- prateleira 1 -->
  <g>
    <rect x="70"  y="86" width="26" height="84" rx="3" fill="#7b3b3b"/>
    <rect x="100" y="98" width="22" height="72" rx="3" fill="#3f5d47"/>
    <rect x="126" y="80" width="28" height="90" rx="3" fill="#a9772f"/>
    <rect x="158" y="104" width="20" height="66" rx="3" fill="#c9b184"/>
    <rect x="182" y="90" width="26" height="80" rx="3" fill="#4a6b8a"/>
    <rect x="212" y="100" width="22" height="70" rx="3" fill="#8f3a30"/>
    <rect x="238" y="84" width="30" height="86" rx="3" fill="#3f5d47"/>
    <rect x="272" y="96" width="22" height="74" rx="3" fill="#a9772f"/>
    <rect x="298" y="88" width="26" height="82" rx="3" fill="#6b4a2f"/>
    <rect x="328" y="102" width="20" height="68" rx="3" fill="#7b3b3b"/>
    <rect x="352" y="86" width="28" height="84" rx="3" fill="#4a6b8a"/>
    <rect x="384" y="98" width="24" height="72" rx="3" fill="#c9b184"/>
  </g>

  <!-- prateleira 2 -->
  <g>
    <rect x="70"  y="214" width="24" height="84" rx="3" fill="#3f5d47"/>
    <rect x="98"  y="226" width="22" height="72" rx="3" fill="#a9772f"/>
    <rect x="124" y="208" width="28" height="90" rx="3" fill="#7b3b3b"/>
    <rect x="156" y="220" width="20" height="78" rx="3" fill="#6b4a2f"/>
    <rect x="180" y="212" width="26" height="86" rx="3" fill="#4a6b8a"/>
    <rect x="210" y="230" width="22" height="68" rx="3" fill="#c9b184"/>
    <rect x="236" y="214" width="30" height="84" rx="3" fill="#8f3a30"/>
    <rect x="270" y="222" width="22" height="76" rx="3" fill="#3f5d47"/>
    <rect x="296" y="210" width="26" height="88" rx="3" fill="#a9772f"/>
    <rect x="326" y="226" width="22" height="72" rx="3" fill="#4a6b8a"/>
    <rect x="352" y="214" width="28" height="84" rx="3" fill="#6b4a2f"/>
    <rect x="384" y="224" width="24" height="74" rx="3" fill="#7b3b3b"/>
  </g>

  <!-- prateleira 3 (alguns livros deitados) -->
  <g>
    <rect x="70"  y="330" width="26" height="84" rx="3" fill="#a9772f"/>
    <rect x="100" y="342" width="22" height="72" rx="3" fill="#4a6b8a"/>
    <rect x="126" y="332" width="28" height="82" rx="3" fill="#3f5d47"/>
    <rect x="158" y="346" width="20" height="68" rx="3" fill="#7b3b3b"/>
    <rect x="182" y="334" width="26" height="80" rx="3" fill="#c9b184"/>
    <rect x="238" y="336" width="30" height="78" rx="3" fill="#6b4a2f"/>
    <rect x="272" y="344" width="22" height="70" rx="3" fill="#8f3a30"/>
    <rect x="298" y="332" width="26" height="82" rx="3" fill="#4a6b8a"/>
    <rect x="352" y="338" width="28" height="76" rx="3" fill="#3f5d47"/>
    <!-- pilha deitada -->
    <rect x="326" y="392" width="60" height="10" rx="2" fill="#a9772f"/>
    <rect x="330" y="380" width="52" height="10" rx="2" fill="#7b3b3b"/>
  </g>
</svg>
